<?xml version="1.0" encoding="utf-8"?>
<!-- Generator: Adobe Illustrator 22.0.1, SVG Export Plug-In . SVG Version: 6.00 Build 0)  -->
<svg version="1.1" id="Layer_1" xmlns="http://www.w3.org/2000/svg" xmlns:xlink="http://www.w3.org/1999/xlink" x="0px" y="0px"
	 viewBox="0 0 2599.7 667.7" style="enable-background:new 0 0 2599.7 667.7;" xml:space="preserve">
<style type="text/css">
	.st0{fill:#515365;}
	.st1{fill:#EF4E46;}
	.st2{fill:url(#SVGID_1_);}
	.st3{fill:url(#SVGID_2_);}
	.st4{fill:url(#SVGID_3_);}
	.st5{fill:url(#SVGID_4_);}
	.st6{fill-rule:evenodd;clip-rule:evenodd;fill:url(#SVGID_5_);}
</style>
<g>
	<g>
		<path class="st0" d="M1366.6,249.3c26.6-0.4,50.2,12.1,65,31.7c1.5,2,4.3,2.7,6.6,1.5l20.6-10.8c2.8-1.4,3.7-5,1.9-7.6
			c-21.3-30.2-57-49.6-97.2-48.1c-60,2.2-108.5,51.5-109.4,111.3c-1,63.3,50.3,114.9,113.6,114.9c38.1,0,71.9-18.7,92.5-47.5
			c1.8-2.6,0.9-6.2-1.9-7.6l-20.7-10.8c-2.2-1.2-5-0.6-6.6,1.4c-14.6,18.9-37.6,31-63.4,31c-45.3,0-81.8-37.4-80-82.9
			C1289.3,283.9,1324.3,249.9,1366.6,249.3z M2487.1,215.9c-64.2,0-116,53.6-112.9,118.6c2.7,58.3,50.2,105.4,108.4,107.7
			c39.8,1.6,75.2-17.5,96.6-47.4c1.8-2.6,0.9-6.1-1.9-7.6l-20.6-10.8c-2.2-1.2-5-0.5-6.5,1.5c-14.9,19.2-38.3,31.5-64.6,31
			c-42-0.8-76.6-34.7-78.2-76.7c-1.7-45.5,34.6-82.9,79.7-82.9c38.5,0,70.6,27.3,78.1,63.6h-39c-8.9,0-16.2,7.2-16.2,16.2
			c0,8.9,7.2,16.4,16.2,16.4l71,0c1,0,1.9-0.8,2.1-1.8c0.6-4.7,0.9-9.7,0.9-14.6C2600.2,266.6,2549.6,215.9,2487.1,215.9z
			 M856.8,249.6c26.6-0.4,50.2,12.2,65.1,31.7c1.5,2,4.3,2.7,6.6,1.5l20.6-10.8c2.8-1.5,3.7-5,1.9-7.6c-21.3-30.2-57-49.6-97.2-48.2
			c-60.1,2.2-108.5,51.5-109.4,111.4c-1,63.3,50.3,115,113.6,115c38.1,0,71.9-18.7,92.5-47.5c1.8-2.6,0.9-6.2-1.9-7.6l-20.7-10.8
			c-2.3-1.2-5-0.6-6.6,1.5c-14.7,18.9-37.6,31-63.4,31c-45.3,0-81.8-37.4-80.1-83C779.5,284.2,814.5,250.1,856.8,249.6z M1015,221.4
			h-25.3c-2.9,0-5.2,2.3-5.2,5.2v205.8c0,2.9,2.3,5.2,5.2,5.2h25.3c2.9,0,5.2-2.3,5.2-5.2V226.6
			C1020.2,223.7,1017.9,221.4,1015,221.4z M1175.2,366c27.5-12.6,48.3-41.3,46.1-74.1c-2.6-38.8-37.9-70.5-76.7-70.5h-86.5
			c-2.9,0-5.2,2.3-5.2,5.2v205.8c0,2.9,2.3,5.2,5.2,5.2h25.3c2.9,0,5.2-2.3,5.2-5.2l0-175.4c0-2.9,2.3-5.2,5.2-5.2h51.8
			c24.8,0,45,20.4,45,45.2v0.2c0,24.9-22.2,44.7-47,44.7h-25.2c-1.3,0-2.1,1.5-1.3,2.6l65.6,90.9c1,1.4,2.5,2.2,4.2,2.2l29.5,0
			c4.2,0,6.7-4.8,4.2-8.2L1175.2,366z M1576.2,401.8h-46V187.7c0-2.9-2.3-5.2-5.2-5.2h-25.4c-2.9,0-5.2,2.3-5.2,5.2v244.7
			c0,2.9,2.3,5.2,5.2,5.2h76.6c2.9,0,5.2-2.3,5.2-5.2l0-25.3C1581.4,404.2,1579,401.8,1576.2,401.8z M2336.2,221.4h-25.4
			c-2.9,0-5.2,2.3-5.2,5.2v143.8c0,0.9-1.1,1.2-1.6,0.5l-100.7-147.2c-1-1.4-2.6-2.3-4.3-2.3h-28c-2.9,0-5.2,2.3-5.2,5.2v205.8
			c0,2.9,2.3,5.2,5.2,5.2h25.4c2.9,0,5.2-2.3,5.2-5.2V287.1c0-0.7,1-1,1.4-0.4l101,148.6c1,1.4,2.6,2.3,4.3,2.3h27.8
			c2.9,0,5.2-2.3,5.2-5.2V226.6C2341.4,223.7,2339,221.4,2336.2,221.4z M2023,216.2c-65.4-2.1-118.9,51.4-116.8,116.9
			c1.9,59.3,50.1,107.6,109.4,109.5c65.4,2.1,118.9-51.4,116.8-116.9C2130.5,266.4,2082.3,218.1,2023,216.2z M2099,333.5
			c-2.1,40.6-35,73.5-75.5,75.6c-47.3,2.4-86.2-36.5-83.8-83.9c2.1-40.6,35-73.5,75.5-75.6C2062.5,247.3,2101.4,286.2,2099,333.5z
			 M1727.3,216.1c-64.3,0-116,53.6-113,118.6c2.7,58.3,50.2,105.5,108.5,107.8c39.8,1.6,75.3-17.5,96.6-47.4
			c1.8-2.6,0.9-6.2-1.9-7.6l-20.6-10.8c-2.2-1.2-5-0.5-6.5,1.5c-14.9,19.2-38.3,31.5-64.6,31c-42-0.8-76.6-34.7-78.2-76.7
			c-1.7-45.5,34.6-83,79.7-83c38.5,0,70.7,27.3,78.1,63.7h-39c-8.9,0-16.2,7.2-16.2,16.2c0,8.9,7.2,16.4,16.2,16.4l71,0
			c1,0,1.9-0.8,2.1-1.8c0.6-4.7,0.9-9.7,0.9-14.6C1840.4,266.8,1789.8,216.1,1727.3,216.1z"/>
	</g>
</g>
<g>
	<path class="st0" d="M797.8,495.6v41.1c0,5.7-1.8,10.4-5.4,14c-3.6,3.6-8.4,5.7-14.5,6.1l-2.1,0.1c-6.6,0-11.9-1.8-15.8-5.4
		c-3.9-3.6-5.9-8.5-6-14.7v-41.2h7.9v40.9c0,4.4,1.2,7.8,3.6,10.2c2.4,2.4,5.8,3.6,10.3,3.6c4.5,0,8-1.2,10.4-3.6
		c2.4-2.4,3.6-5.8,3.6-10.2v-41H797.8z"/>
	<path class="st0" d="M816.4,511.1l0.2,5.6c3.4-4.3,7.9-6.5,13.4-6.5c9.5,0,14.3,5.4,14.4,16.1V556h-7.7v-29.7
		c0-3.2-0.8-5.6-2.2-7.2s-3.7-2.3-6.8-2.3c-2.5,0-4.7,0.7-6.6,2s-3.3,3.1-4.4,5.2v32h-7.7v-44.9H816.4z"/>
	<path class="st0" d="M856.1,499.2c0-1.2,0.4-2.3,1.1-3.2c0.8-0.9,1.9-1.3,3.4-1.3s2.6,0.4,3.4,1.3c0.8,0.9,1.2,1.9,1.2,3.2
		s-0.4,2.3-1.2,3.1c-0.8,0.8-1.9,1.2-3.4,1.2s-2.6-0.4-3.4-1.2C856.5,501.5,856.1,500.5,856.1,499.2z M864.4,556h-7.7v-44.9h7.7V556
		z"/>
	<path class="st0" d="M891.5,545.6l11.1-34.5h7.8L894.4,556h-5.9l-16.3-44.9h7.8L891.5,545.6z"/>
	<path class="st0" d="M935.9,556.9c-6.1,0-11-2-14.9-6c-3.8-4-5.7-9.3-5.7-16v-1.4c0-4.5,0.9-8.4,2.6-11.9c1.7-3.5,4.1-6.2,7.1-8.2
		c3.1-2,6.4-3,9.9-3c5.8,0,10.4,1.9,13.6,5.8s4.9,9.4,4.9,16.5v3.2H923c0.1,4.4,1.4,8,3.9,10.7c2.5,2.7,5.6,4.1,9.4,4.1
		c2.7,0,5-0.6,6.9-1.7s3.5-2.6,4.9-4.4l4.7,3.7C949.1,554,943.5,556.9,935.9,556.9z M935,516.6c-3.1,0-5.7,1.1-7.8,3.4
		c-2.1,2.3-3.4,5.4-3.9,9.5h22.5v-0.6c-0.2-3.9-1.3-6.9-3.2-9.1C940.7,517.7,938.2,516.6,935,516.6z"/>
	<path class="st0" d="M984,518c-1.2-0.2-2.4-0.3-3.8-0.3c-5,0-8.5,2.1-10.3,6.4V556h-7.7v-44.9h7.5l0.1,5.2c2.5-4,6.1-6,10.7-6
		c1.5,0,2.6,0.2,3.4,0.6V518z"/>
	<path class="st0" d="M1017.2,544.1c0-2.1-0.8-3.7-2.3-4.8c-1.6-1.1-4.3-2.1-8.2-3c-3.9-0.8-7-1.8-9.3-3s-4-2.5-5.1-4.2
		c-1.1-1.6-1.6-3.5-1.6-5.7c0-3.7,1.6-6.8,4.7-9.3c3.1-2.5,7.1-3.8,11.9-3.8c5.1,0,9.2,1.3,12.4,3.9c3.2,2.6,4.8,6,4.8,10.1h-7.7
		c0-2.1-0.9-3.9-2.7-5.4s-4-2.3-6.7-2.3c-2.8,0-5,0.6-6.6,1.8c-1.6,1.2-2.4,2.8-2.4,4.8c0,1.9,0.7,3.3,2.2,4.2
		c1.5,0.9,4.1,1.8,7.9,2.7c3.8,0.9,6.9,1.9,9.3,3.1c2.4,1.2,4.1,2.6,5.3,4.3c1.1,1.7,1.7,3.7,1.7,6.1c0,4-1.6,7.2-4.8,9.6
		c-3.2,2.4-7.4,3.6-12.5,3.6c-3.6,0-6.8-0.6-9.5-1.9c-2.8-1.3-4.9-3.1-6.5-5.3c-1.6-2.3-2.3-4.8-2.3-7.4h7.7
		c0.1,2.6,1.2,4.6,3.1,6.1c1.9,1.5,4.5,2.3,7.6,2.3c2.9,0,5.2-0.6,7-1.8C1016.4,547.7,1017.2,546.1,1017.2,544.1z"/>
	<path class="st0" d="M1062.6,556c-0.4-0.9-0.8-2.5-1.1-4.7c-3.6,3.7-7.8,5.6-12.8,5.6c-4.4,0-8.1-1.3-10.9-3.8
		c-2.8-2.5-4.3-5.7-4.3-9.5c0-4.7,1.8-8.3,5.3-10.9c3.6-2.6,8.6-3.9,15-3.9h7.5v-3.5c0-2.7-0.8-4.8-2.4-6.4c-1.6-1.6-4-2.4-7.1-2.4
		c-2.7,0-5,0.7-6.9,2.1c-1.9,1.4-2.8,3.1-2.8,5h-7.7c0-2.2,0.8-4.4,2.4-6.5c1.6-2.1,3.7-3.7,6.5-5c2.7-1.2,5.7-1.8,9-1.8
		c5.2,0,9.2,1.3,12.2,3.9c2.9,2.6,4.5,6.1,4.6,10.7v20.7c0,4.1,0.5,7.4,1.6,9.8v0.7H1062.6z M1049.9,550.2c2.4,0,4.7-0.6,6.8-1.9
		s3.7-2.9,4.7-4.9v-9.2h-6c-9.4,0-14.1,2.8-14.1,8.3c0,2.4,0.8,4.3,2.4,5.6C1045.3,549.5,1047.4,550.2,1049.9,550.2z"/>
	<path class="st0" d="M1089.5,556h-7.7v-63.8h7.7V556z"/>
	<path class="st0" d="M1121,533.2c0-6.9,1.6-12.4,4.9-16.6c3.3-4.2,7.5-6.3,12.8-6.3c5.3,0,9.4,1.8,12.5,5.4v-23.4h7.7V556h-7.1
		l-0.4-4.8c-3.1,3.8-7.3,5.6-12.8,5.6c-5.2,0-9.4-2.1-12.7-6.4c-3.3-4.3-4.9-9.8-4.9-16.7V533.2z M1128.6,534.1
		c0,5.1,1.1,9.1,3.2,12c2.1,2.9,5,4.3,8.7,4.3c4.9,0,8.4-2.2,10.7-6.6v-20.6c-2.3-4.2-5.8-6.3-10.6-6.3c-3.8,0-6.7,1.5-8.8,4.4
		C1129.7,524.1,1128.6,528.4,1128.6,534.1z"/>
	<path class="st0" d="M1198.5,556c-0.4-0.9-0.8-2.5-1.1-4.7c-3.6,3.7-7.8,5.6-12.8,5.6c-4.4,0-8.1-1.3-10.9-3.8
		c-2.8-2.5-4.3-5.7-4.3-9.5c0-4.7,1.8-8.3,5.3-10.9c3.6-2.6,8.6-3.9,15-3.9h7.5v-3.5c0-2.7-0.8-4.8-2.4-6.4c-1.6-1.6-4-2.4-7.1-2.4
		c-2.7,0-5,0.7-6.9,2.1s-2.8,3.1-2.8,5h-7.7c0-2.2,0.8-4.4,2.4-6.5c1.6-2.1,3.7-3.7,6.5-5c2.7-1.2,5.7-1.8,9-1.8
		c5.2,0,9.2,1.3,12.2,3.9c2.9,2.6,4.5,6.1,4.6,10.7v20.7c0,4.1,0.5,7.4,1.6,9.8v0.7H1198.5z M1185.7,550.2c2.4,0,4.7-0.6,6.8-1.9
		s3.7-2.9,4.7-4.9v-9.2h-6c-9.4,0-14.1,2.8-14.1,8.3c0,2.4,0.8,4.3,2.4,5.6C1181.2,549.5,1183.2,550.2,1185.7,550.2z"/>
	<path class="st0" d="M1227.4,500.3v10.9h8.4v5.9h-8.4v27.9c0,1.8,0.4,3.2,1.1,4.1s2,1.4,3.8,1.4c0.9,0,2.1-0.2,3.7-0.5v6.2
		c-2,0.5-4,0.8-5.9,0.8c-3.4,0-6-1-7.8-3.1s-2.6-5-2.6-8.8v-27.8h-8.2v-5.9h8.2v-10.9H1227.4z"/>
	<path class="st0" d="M1272.5,556c-0.4-0.9-0.8-2.5-1.1-4.7c-3.6,3.7-7.8,5.6-12.8,5.6c-4.4,0-8.1-1.3-10.9-3.8
		c-2.8-2.5-4.3-5.7-4.3-9.5c0-4.7,1.8-8.3,5.3-10.9c3.6-2.6,8.6-3.9,15-3.9h7.5v-3.5c0-2.7-0.8-4.8-2.4-6.4c-1.6-1.6-4-2.4-7.1-2.4
		c-2.7,0-5,0.7-6.9,2.1c-1.9,1.4-2.8,3.1-2.8,5h-7.7c0-2.2,0.8-4.4,2.4-6.5c1.6-2.1,3.7-3.7,6.5-5c2.7-1.2,5.7-1.8,9-1.8
		c5.2,0,9.2,1.3,12.2,3.9c2.9,2.6,4.5,6.1,4.6,10.7v20.7c0,4.1,0.5,7.4,1.6,9.8v0.7H1272.5z M1259.8,550.2c2.4,0,4.7-0.6,6.8-1.9
		s3.7-2.9,4.7-4.9v-9.2h-6c-9.4,0-14.1,2.8-14.1,8.3c0,2.4,0.8,4.3,2.4,5.6C1255.2,549.5,1257.2,550.2,1259.8,550.2z"/>
	<path class="st0" d="M1319.3,511.1l0.2,5c3.3-3.9,7.7-5.8,13.3-5.8c6.3,0,10.6,2.4,12.8,7.2c1.5-2.2,3.4-3.9,5.8-5.2
		c2.4-1.3,5.2-2,8.5-2c9.9,0,14.9,5.2,15,15.6V556h-7.7v-29.6c0-3.2-0.7-5.6-2.2-7.2c-1.5-1.6-3.9-2.4-7.4-2.4
		c-2.8,0-5.2,0.9-7.1,2.6c-1.9,1.7-3,4-3.3,6.9V556h-7.7v-29.4c0-6.5-3.2-9.8-9.6-9.8c-5,0-8.5,2.1-10.3,6.4V556h-7.7v-44.9H1319.3z
		"/>
	<path class="st0" d="M1414.3,556c-0.4-0.9-0.8-2.5-1.1-4.7c-3.6,3.7-7.8,5.6-12.8,5.6c-4.4,0-8.1-1.3-10.9-3.8
		c-2.8-2.5-4.3-5.7-4.3-9.5c0-4.7,1.8-8.3,5.3-10.9c3.6-2.6,8.6-3.9,15-3.9h7.5v-3.5c0-2.7-0.8-4.8-2.4-6.4c-1.6-1.6-4-2.4-7.1-2.4
		c-2.7,0-5,0.7-6.9,2.1c-1.9,1.4-2.8,3.1-2.8,5h-7.7c0-2.2,0.8-4.4,2.4-6.5c1.6-2.1,3.7-3.7,6.5-5c2.7-1.2,5.7-1.8,9-1.8
		c5.2,0,9.2,1.3,12.2,3.9c2.9,2.6,4.5,6.1,4.6,10.7v20.7c0,4.1,0.5,7.4,1.6,9.8v0.7H1414.3z M1401.5,550.2c2.4,0,4.7-0.6,6.8-1.9
		s3.7-2.9,4.7-4.9v-9.2h-6c-9.4,0-14.1,2.8-14.1,8.3c0,2.4,0.8,4.3,2.4,5.6C1396.9,549.5,1399,550.2,1401.5,550.2z"/>
	<path class="st0" d="M1454.5,518c-1.2-0.2-2.4-0.3-3.8-0.3c-5,0-8.5,2.1-10.3,6.4V556h-7.7v-44.9h7.5l0.1,5.2c2.5-4,6.1-6,10.7-6
		c1.5,0,2.6,0.2,3.4,0.6V518z"/>
	<path class="st0" d="M1474.1,535.2l-4.8,5V556h-7.7v-63.8h7.7v38.6l4.1-4.9l14-14.8h9.3l-17.5,18.8l19.5,26.1h-9L1474.1,535.2z"/>
	<path class="st0" d="M1522.4,556.9c-6.1,0-11-2-14.9-6c-3.8-4-5.7-9.3-5.7-16v-1.4c0-4.5,0.9-8.4,2.6-11.9c1.7-3.5,4.1-6.2,7.1-8.2
		c3.1-2,6.4-3,9.9-3c5.8,0,10.4,1.9,13.6,5.8s4.9,9.4,4.9,16.5v3.2h-30.4c0.1,4.4,1.4,8,3.9,10.7c2.5,2.7,5.6,4.1,9.4,4.1
		c2.7,0,5-0.6,6.9-1.7c1.9-1.1,3.5-2.6,4.9-4.4l4.7,3.7C1535.6,554,1530,556.9,1522.4,556.9z M1521.5,516.6c-3.1,0-5.7,1.1-7.8,3.4
		c-2.1,2.3-3.4,5.4-3.9,9.5h22.5v-0.6c-0.2-3.9-1.3-6.9-3.2-9.1C1527.2,517.7,1524.7,516.6,1521.5,516.6z"/>
	<path class="st0" d="M1559.2,500.3v10.9h8.4v5.9h-8.4v27.9c0,1.8,0.4,3.2,1.1,4.1s2,1.4,3.8,1.4c0.9,0,2.1-0.2,3.7-0.5v6.2
		c-2,0.5-4,0.8-5.9,0.8c-3.4,0-6-1-7.8-3.1s-2.6-5-2.6-8.8v-27.8h-8.2v-5.9h8.2v-10.9H1559.2z"/>
	<path class="st0" d="M1614.5,534.1c0,6.8-1.6,12.3-4.7,16.5c-3.1,4.2-7.4,6.3-12.7,6.3c-5.5,0-9.7-1.7-12.9-5.2v21.6h-7.7v-62.2h7
		l0.4,5c3.1-3.9,7.5-5.8,13-5.8c5.4,0,9.7,2,12.8,6.1c3.1,4.1,4.7,9.7,4.7,17V534.1z M1606.8,533.2c0-5.1-1.1-9.1-3.2-12
		s-5.1-4.4-8.9-4.4c-4.6,0-8.1,2.1-10.5,6.2v21.5c2.3,4.1,5.8,6.1,10.5,6.1c3.7,0,6.6-1.5,8.8-4.4
		C1605.8,543.3,1606.8,539,1606.8,533.2z"/>
	<path class="st0" d="M1632.6,556h-7.7v-63.8h7.7V556z"/>
	<path class="st0" d="M1672.6,556c-0.4-0.9-0.8-2.5-1.1-4.7c-3.6,3.7-7.8,5.6-12.8,5.6c-4.4,0-8.1-1.3-10.9-3.8
		c-2.8-2.5-4.3-5.7-4.3-9.5c0-4.7,1.8-8.3,5.3-10.9c3.6-2.6,8.6-3.9,15-3.9h7.5v-3.5c0-2.7-0.8-4.8-2.4-6.4c-1.6-1.6-4-2.4-7.1-2.4
		c-2.7,0-5,0.7-6.9,2.1s-2.8,3.1-2.8,5h-7.7c0-2.2,0.8-4.4,2.4-6.5c1.6-2.1,3.8-3.7,6.5-5c2.7-1.2,5.7-1.8,9-1.8
		c5.2,0,9.2,1.3,12.2,3.9c2.9,2.6,4.5,6.1,4.6,10.7v20.7c0,4.1,0.5,7.4,1.6,9.8v0.7H1672.6z M1659.9,550.2c2.4,0,4.7-0.6,6.8-1.9
		s3.7-2.9,4.7-4.9v-9.2h-6c-9.4,0-14.1,2.8-14.1,8.3c0,2.4,0.8,4.3,2.4,5.6C1655.3,549.5,1657.4,550.2,1659.9,550.2z"/>
	<path class="st0" d="M1709.2,550.6c2.7,0,5.1-0.8,7.2-2.5c2-1.7,3.2-3.7,3.4-6.2h7.3c-0.1,2.6-1,5-2.7,7.3s-3.8,4.2-6.5,5.6
		c-2.7,1.4-5.6,2.1-8.7,2.1c-6.1,0-11-2-14.6-6.1c-3.6-4.1-5.4-9.7-5.4-16.7v-1.3c0-4.4,0.8-8.3,2.4-11.7s3.9-6,6.9-7.9
		c3-1.9,6.5-2.8,10.6-2.8c5,0,9.2,1.5,12.6,4.5c3.3,3,5.1,6.9,5.3,11.7h-7.3c-0.2-2.9-1.3-5.3-3.3-7.2c-2-1.9-4.4-2.8-7.3-2.8
		c-3.9,0-6.9,1.4-9.1,4.2c-2.1,2.8-3.2,6.9-3.2,12.2v1.5c0,5.2,1.1,9.2,3.2,12C1702.2,549.2,1705.2,550.6,1709.2,550.6z"/>
	<path class="st0" d="M1754.3,556.9c-6.1,0-11-2-14.9-6c-3.8-4-5.7-9.3-5.7-16v-1.4c0-4.5,0.9-8.4,2.6-11.9c1.7-3.5,4.1-6.2,7.1-8.2
		c3.1-2,6.4-3,9.9-3c5.8,0,10.4,1.9,13.6,5.8s4.9,9.4,4.9,16.5v3.2h-30.4c0.1,4.4,1.4,8,3.9,10.7c2.5,2.7,5.6,4.1,9.4,4.1
		c2.7,0,5-0.6,6.9-1.7c1.9-1.1,3.5-2.6,4.9-4.4l4.7,3.7C1767.4,554,1761.8,556.9,1754.3,556.9z M1753.3,516.6
		c-3.1,0-5.7,1.1-7.8,3.4c-2.1,2.3-3.4,5.4-3.9,9.5h22.5v-0.6c-0.2-3.9-1.3-6.9-3.2-9.1C1759.1,517.7,1756.5,516.6,1753.3,516.6z"/>
</g>
<circle class="st1" cx="1873.3" cy="420.8" r="21.8"/>
<g>
	<g>
		<linearGradient id="SVGID_1_" gradientUnits="userSpaceOnUse" x1="123.257" y1="581.9694" x2="441.6075" y2="263.6188">
			<stop  offset="0" style="stop-color:#E23B4D"/>
			<stop  offset="1" style="stop-color:#FF8641"/>
		</linearGradient>
		<path class="st2" d="M282.1,647.9c-39,0-77.6-10.2-112.3-30.3c-52-30.1-89.2-78.6-104.8-136.7s-7.5-118.7,22.6-170.7
			c30.1-52,78.6-89.2,136.7-104.8c58.1-15.5,118.7-7.5,170.7,22.6c52,30.1,89.2,78.6,104.8,136.7c15.5,58.1,7.5,118.7-22.6,170.7
			c-30.1,52-78.6,89.2-136.7,104.8C321.2,645.3,301.6,647.9,282.1,647.9z M282.8,201.1c-76.6,0-151.3,39.7-192.3,110.7
			c-61.2,105.8-24.9,241.7,81,302.9c34.9,20.1,73,29.7,110.6,29.7c76.6,0,151.3-39.7,192.3-110.7c61.2-105.8,24.9-241.7-81-302.9
			C358.6,210.7,320.4,201.1,282.8,201.1z"/>
	</g>
	<g>
		<linearGradient id="SVGID_2_" gradientUnits="userSpaceOnUse" x1="112.0094" y1="573.9049" x2="505.7537" y2="180.1605">
			<stop  offset="0" style="stop-color:#E23B4D"/>
			<stop  offset="1" style="stop-color:#FF8641"/>
		</linearGradient>
		<path class="st3" d="M308.4,655.5c-48.3,0-95.9-12.7-138.8-37.4C105.3,580.8,59.3,520.8,40,449c-19.2-71.8-9.3-146.8,27.9-211.2
			c37.2-64.4,97.2-110.4,169-129.6c71.8-19.2,146.8-9.3,211.2,27.9c64.4,37.2,110.4,97.2,129.6,169c19.2,71.8,9.3,146.8-27.9,211.2
			c-37.2,64.4-97.2,110.4-169,129.6C356.9,652.3,332.6,655.5,308.4,655.5z M309.3,102.1c-95.1,0-187.7,49.3-238.6,137.4
			C34,303.1,24.2,377.2,43.2,448.1s64.5,130.3,128.1,167c63.6,36.7,137.7,46.5,208.7,27.5c71-19,130.3-64.5,167-128.1
			c36.7-63.6,46.5-137.7,27.5-208.7c-19-71-64.5-130.3-128.1-167C403.2,114,356,102.1,309.3,102.1z"/>
	</g>
	<g>
		<linearGradient id="SVGID_3_" gradientUnits="userSpaceOnUse" x1="105.9897" y1="568.7014" x2="542.2285" y2="132.4627">
			<stop  offset="0" style="stop-color:#E23B4D"/>
			<stop  offset="1" style="stop-color:#FF8641"/>
		</linearGradient>
		<path class="st4" d="M324,659c-12.7,0-25.4-0.8-38.1-2.4c-41-5.1-80-18.2-116.1-39.1c-36-20.8-66.9-48.1-91.8-81
			C54,504.8,36.6,469,26.2,430.3C15.9,391.6,13.1,352,18,312.4c5.1-41,18.2-80,39.1-116.1c20.8-36,48.1-66.9,81-91.8
			c31.8-24,67.6-41.5,106.3-51.8c38.7-10.4,78.4-13.1,117.9-8.2c41,5.1,80,18.2,116.1,39.1c36,20.8,66.9,48.1,91.8,81
			c24,31.8,41.5,67.6,51.8,106.3c10.4,38.7,13.1,78.4,8.2,117.9c-5.1,41-18.2,80-39.1,116.1c-20.8,36-48.1,66.9-81,91.8
			c-31.8,24-67.6,41.5-106.3,51.8C377.6,655.5,350.9,659,324,659z M324.6,45.4c-26.5,0-53.1,3.5-79.4,10.5
			C166.5,77,100.7,127.4,59.9,198C19.2,268.5,8.3,350.8,29.4,429.5c21.1,78.7,71.5,144.5,142.1,185.3
			c47.9,27.7,100.3,40.8,152.1,40.8c105.5,0,208.2-54.7,264.7-152.4c40.8-70.6,51.6-152.8,30.5-231.5
			C597.7,193,547.3,127.2,476.7,86.4C429.7,59.3,377.5,45.4,324.6,45.4z"/>
	</g>
	<linearGradient id="SVGID_4_" gradientUnits="userSpaceOnUse" x1="97.0397" y1="569.9408" x2="569.3334" y2="97.6471">
		<stop  offset="0" style="stop-color:#E23B4D"/>
		<stop  offset="1" style="stop-color:#FF8641"/>
	</linearGradient>
	<path class="st5" d="M333.9,8.4c55.3,0,111.3,14.1,162.6,43.7C652.2,142.1,703.9,341.3,614,497c-60.3,104.5-169,162.9-281.1,162.9
		c-55,0-110.8-14.1-162.1-43.7C15,526.2-38.4,327,51.6,171.3C111.9,66.8,221.4,8.4,333.9,8.4 M333.9,0.2v8.2V0.2
		c-57.6,0-114.6,15-164.8,43.3c-25.4,14.3-48.8,32-69.6,52.4c-21.4,21-39.9,45-55.1,71.3c-22.5,39-36.8,81.3-42.3,125.7
		c-5.3,42.8-2.3,85.8,8.9,127.7c11.2,41.9,30.1,80.6,56.1,115c26.9,35.7,60.4,65.2,99.4,87.7c25.8,14.9,53.3,26.3,81.7,33.8
		c27.6,7.3,56,11,84.6,11c57.4,0,114.1-15,164-43.3c25.3-14.3,48.6-32,69.3-52.4c21.3-21,39.8-45,55-71.3
		c22.6-39,36.9-81.3,42.5-125.6c5.5-42.9,2.7-85.8-8.3-127.7c-11-41.9-29.7-80.6-55.6-115.1C573,97.1,539.6,67.5,500.6,45
		c-25.8-14.9-53.3-26.3-81.8-33.8C391.1,3.9,362.6,0.2,333.9,0.2L333.9,0.2z"/>
	<linearGradient id="SVGID_5_" gradientUnits="userSpaceOnUse" x1="113.4168" y1="573.2844" x2="505.2343" y2="181.4669">
		<stop  offset="0" style="stop-color:#E23B4D"/>
		<stop  offset="1" style="stop-color:#FF8641"/>
	</linearGradient>
	<path class="st6" d="M503.3,501.2c-3.7-1.7-8-0.4-10.3,2.9c-65.3,94.7-193.5,124.8-294.9,66.3C91.6,508.8,55.1,372.4,116.7,265.8
		c61.6-106.6,197.9-143.1,304.5-81.5c29.8,17.2,54.1,40.3,72.3,66.9c2.3,3.3,6.6,4.6,10.3,2.9l34.4-15.6c4.6-2.1,6.3-7.8,3.5-12.1
		c-23-35.6-54.6-66.3-93.8-89C315.4,61,146,106.4,69.5,238.8C-7,371.3,38.3,540.7,170.8,617.2c128.1,74,290.7,34.1,370.5-88.4
		c2.8-4.3,1.1-10-3.5-12.1L503.3,501.2z"/>
</g>
</svg>
